<?xml version="1.0" encoding="UTF-8" standalone="no"?>
<svg
   xmlns:dc="http://purl.org/dc/elements/1.1/"
   xmlns:cc="http://creativecommons.org/ns#"
   xmlns:rdf="http://www.w3.org/1999/02/22-rdf-syntax-ns#"
   xmlns:svg="http://www.w3.org/2000/svg"
   xmlns="http://www.w3.org/2000/svg"
   xmlns:xlink="http://www.w3.org/1999/xlink"
   id="svg7651"
   version="1.1"
   viewBox="0 0 50.000012 80.178195"
   height="378.79462"
   width="236.22054">
  <defs
     id="defs7645" />
  <metadata
     id="metadata7648">
    <rdf:RDF>
      <cc:Work
         rdf:about="">
        <dc:format>image/svg+xml</dc:format>
        <dc:type
           rdf:resource="http://purl.org/dc/dcmitype/StillImage" />
        <dc:title></dc:title>
      </cc:Work>
    </rdf:RDF>
  </metadata>
  <g
     transform="translate(66.58364,-95.179138)"
     id="layer1">
    <path
       transform="matrix(0,0.01237929,-0.01569785,0,-3.1837339,125.46437)"
       d="m -853.86914,876.73242 c -416.24546,0 -815.44136,165.35358 -1109.77146,459.68358 -294.33,294.33 -459.6836,693.5265 -459.6836,1109.7715 0,416.246 165.3536,815.4434 459.6836,1109.7734 294.3301,294.33 693.526,459.6836 1109.77146,459.6836 H 2437.7812 c 416.2457,0 815.4434,-165.3536 1109.7735,-459.6836 294.33,-294.33 459.6836,-693.5274 459.6836,-1109.7734 0,-416.245 -165.3536,-815.4415 -459.6836,-1109.7715 C 3253.2246,1042.086 2854.027,876.73242 2437.7812,876.73242 Z"
       id="background-green"
       style="fill:#668000;fill-opacity:1;fill-rule:evenodd;stroke:#000000;stroke-width:46.2383194;stroke-linecap:butt;stroke-linejoin:miter;stroke-miterlimit:4;stroke-dasharray:none;stroke-opacity:1"
       xlink:href="#path11514-9" />
    <path
       id="background-kahki"
       d="m -25.436761,102.44377 c -4.282408,-3.506034 -10.090632,-5.475705 -16.146872,-5.475705 -6.056257,0 -11.864448,1.969671 -16.146856,5.475705 -4.282407,3.50604 -6.68824,8.26124 -6.68824,13.21952 v 39.20988 c 0,4.95829 2.405833,9.71349 6.68824,13.21953 4.282408,3.50604 10.090599,5.47571 16.146856,5.47571 6.05624,0 11.864464,-1.96967 16.146872,-5.47571 4.282392,-3.50604 6.688224,-8.26124 6.688224,-13.21953 v -39.20988 c 0,-4.95828 -2.405832,-9.71348 -6.688224,-13.21952 z"
       style="fill:#decd87;fill-opacity:1;fill-rule:evenodd;stroke:#000000;stroke-width:0.60872328;stroke-linecap:butt;stroke-linejoin:miter;stroke-miterlimit:4;stroke-dasharray:none;stroke-opacity:1" />
    <g
       id="tree-left">
      <g
         id="g6892"
         transform="matrix(0.02395749,0,0,0.02395749,-17.08046,114.54705)"
         style="fill:none;stroke:#000000;stroke-width:27.1268177;stroke-miterlimit:4;stroke-dasharray:none;stroke-opacity:1">
        <path
           style="fill:none;fill-opacity:0.18292685;stroke:#000000;stroke-width:27.1268177;stroke-miterlimit:4;stroke-dasharray:none;stroke-dashoffset:0;stroke-opacity:1"
           d="m -1261.8599,781.4624 c 14.164,-4.79319 29.0457,-8.65357 33.9,-11.18499 m 0,0 c 135.2167,-70.513 116.205,-279.51604 83.8758,-396.4174 -34.3709,-111.56974 -155.0277,-182.84508 -268.5094,-146.47788 -96.2961,30.8598 -157.7407,136.02347 -124.6577,234.16279 27.3157,81.03094 117.04,132.68545 199.8162,102.83757 65.7791,-23.71895 107.7139,-98.09556 81.0175,-165.46965 -20.0297,-50.54917 -79.2369,-82.90149 -131.1231,-59.19726 -35.356,16.15236 -58.4461,60.61893 -37.3771,96.77651 11.7785,20.2137 43.0467,34.9768 62.4299,15.55695 7.1526,-7.16616 10.6335,-31.85169 -6.2632,-28.08337"
           id="path6854" />
        <path
           transform="scale(-1,1)"
           style="fill:none;fill-rule:evenodd;stroke:#000000;stroke-width:27.1268177;stroke-linecap:butt;stroke-linejoin:miter;stroke-miterlimit:4;stroke-dasharray:none;stroke-opacity:1"
           id="path6856"
           d="m 1197.0386,30.742971 c 14.413,-3.214431 11.4439,17.842643 5.3426,23.955469 -16.5342,16.565383 -43.2064,3.972275 -53.2536,-13.270275 -17.972,-30.842877 1.7241,-68.773433 31.8832,-82.5516 44.2596,-20.220014 94.7641,7.376932 111.8496,50.4960188 22.7724,57.4709612 -12.9985,120.9151662 -69.1088,141.1477362 -70.6092,25.46062 -147.1452,-18.60134 -170.4458,-87.721767 -28.2203,-83.714098 24.1928,-173.420063 106.3346,-199.743863 96.8013,-31.02169 199.7231,29.77709 229.0419,124.947506 28.3699,92.089861 -15.7386,192.553414 -98.7654,239.333484" />
        <path
           transform="matrix(0.29451988,0.81028804,-0.81028804,0.29451988,-1507.9209,-709.39658)"
           style="fill:none;fill-rule:evenodd;stroke:#000000;stroke-width:31.46402168;stroke-linecap:butt;stroke-linejoin:miter;stroke-miterlimit:4;stroke-dasharray:none;stroke-opacity:1"
           id="path6858"
           d="m 638.41638,-212.34877 c -9.96382,6.75423 -14.02037,-10.09873 -11.22598,-16.56052 7.57262,-17.51106 31.56525,-15.9536 44.34702,-5.89144 22.86358,17.99885 19.29361,52.6542 0.5569,72.13352 -27.49687,28.58667 -74.05124,22.79346 -99.92001,-4.77764 -34.47902,-36.74794 -26.36508,-95.56051 10.11217,-127.70652 45.9029,-40.45246 117.12399,-29.97454 155.49302,15.44672 32.43202,38.39304 37.24274,93.88704 15.04607,138.47513" />
        <path
           transform="matrix(0.79962643,-0.32234491,0.32234491,0.79962643,-1953.0413,390.02023)"
           d="m 638.41638,-212.34877 c -9.96382,6.75423 -14.02037,-10.09873 -11.22598,-16.56052 7.57262,-17.51106 31.56525,-15.9536 44.34702,-5.89144 22.86358,17.99885 19.29361,52.6542 0.5569,72.13352 -27.49687,28.58667 -74.05124,22.79346 -99.92001,-4.77764 -34.47902,-36.74794 -26.36508,-95.56051 10.11217,-127.70652 45.9029,-40.45246 117.12399,-29.97454 155.49302,15.44672 32.43202,38.39304 37.24274,93.88704 15.04607,138.47513"
           id="path6860"
           style="fill:none;fill-rule:evenodd;stroke:#000000;stroke-width:31.46402168;stroke-linecap:butt;stroke-linejoin:miter;stroke-miterlimit:4;stroke-dasharray:none;stroke-opacity:1" />
        <path
           transform="matrix(1.0033422,0.20050165,-0.20050165,1.0033422,-2090.1572,-128.52916)"
           d="m 638.41638,-212.34877 c -9.96382,6.75423 -14.02037,-10.09873 -11.22598,-16.56052 7.57262,-17.51106 31.56525,-15.9536 44.34702,-5.89144 22.86358,17.99885 19.29361,52.6542 0.5569,72.13352 -27.49687,28.58667 -74.05124,22.79346 -99.92001,-4.77764 -34.47902,-36.74794 -26.36508,-95.56051 10.11217,-127.70652 45.9029,-40.45246 117.12399,-29.97454 155.49302,15.44672 32.43202,38.39304 37.24274,93.88704 15.04607,138.47513"
           id="path6862"
           style="fill:none;fill-rule:evenodd;stroke:#000000;stroke-width:26.51227379;stroke-linecap:butt;stroke-linejoin:miter;stroke-miterlimit:4;stroke-dasharray:none;stroke-opacity:1" />
        <path
           transform="matrix(0.99155294,-0.25242672,0.25242672,0.99155294,-2232.0538,643.15505)"
           style="fill:none;fill-rule:evenodd;stroke:#000000;stroke-width:26.51227379;stroke-linecap:butt;stroke-linejoin:miter;stroke-miterlimit:4;stroke-dasharray:none;stroke-opacity:1"
           id="path6864"
           d="m 638.41638,-212.34877 c -9.96382,6.75423 -14.02037,-10.09873 -11.22598,-16.56052 7.57262,-17.51106 31.56525,-15.9536 44.34702,-5.89144 22.86358,17.99885 19.29361,52.6542 0.5569,72.13352 -27.49687,28.58667 -74.05124,22.79346 -99.92001,-4.77764 -34.47902,-36.74794 -26.36508,-95.56051 10.11217,-127.70652 45.9029,-40.45246 117.12399,-29.97454 155.49302,15.44672 32.43202,38.39304 37.24274,93.88704 15.04607,138.47513" />
        <path
           transform="matrix(0.03468994,0.64184718,0.64184718,-0.03468994,-1115.7314,-812.64122)"
           d="m 638.41638,-212.34877 c -9.96382,6.75423 -14.02037,-10.09873 -11.22598,-16.56052 7.57262,-17.51106 31.56525,-15.9536 44.34702,-5.89144 22.86358,17.99885 19.29361,52.6542 0.5569,72.13352 -27.49687,28.58667 -74.05124,22.79346 -99.92001,-4.77764 -34.47902,-36.74794 -26.36508,-95.56051 10.11217,-127.70652 45.9029,-40.45246 117.12399,-29.97454 155.49302,15.44672 32.43202,38.39304 37.24274,93.88704 15.04607,138.47513"
           id="path6866"
           style="fill:none;fill-rule:evenodd;stroke:#000000;stroke-width:42.20207596;stroke-linecap:butt;stroke-linejoin:miter;stroke-miterlimit:4;stroke-dasharray:none;stroke-opacity:1" />
        <path
           transform="matrix(0.44620585,-0.46267865,-0.46267865,-0.44620585,-2074.378,629.06073)"
           style="fill:none;fill-rule:evenodd;stroke:#000000;stroke-width:42.20207596;stroke-linecap:butt;stroke-linejoin:miter;stroke-miterlimit:4;stroke-dasharray:none;stroke-opacity:1"
           id="path6868"
           d="m 638.41638,-212.34877 c -9.96382,6.75423 -14.02037,-10.09873 -11.22598,-16.56052 7.57262,-17.51106 31.56525,-15.9536 44.34702,-5.89144 22.86358,17.99885 19.29361,52.6542 0.5569,72.13352 -27.49687,28.58667 -74.05124,22.79346 -99.92001,-4.77764 -34.47902,-36.74794 -26.36508,-95.56051 10.11217,-127.70652 45.9029,-40.45246 117.12399,-29.97454 155.49302,15.44672 32.43202,38.39304 37.24274,93.88704 15.04607,138.47513" />
        <path
           transform="matrix(0.64102193,-0.04756129,0.04756129,0.64102193,-2193.916,313.14304)"
           d="m 638.41638,-212.34877 c -9.96382,6.75423 -14.02037,-10.09873 -11.22598,-16.56052 7.57262,-17.51106 31.56525,-15.9536 44.34702,-5.89144 22.86358,17.99885 19.29361,52.6542 0.5569,72.13352 -27.49687,28.58667 -74.05124,22.79346 -99.92001,-4.77764 -34.47902,-36.74794 -26.36508,-95.56051 10.11217,-127.70652 45.9029,-40.45246 117.12399,-29.97454 155.49302,15.44672 32.43202,38.39304 37.24274,93.88704 15.04607,138.47513"
           id="path6870"
           style="fill:none;fill-rule:evenodd;stroke:#000000;stroke-width:42.20207596;stroke-linecap:butt;stroke-linejoin:miter;stroke-miterlimit:4;stroke-dasharray:none;stroke-opacity:1" />
        <path
           transform="rotate(-17.159785,-961.90862,7075.8501)"
           style="fill:none;fill-rule:evenodd;stroke:#000000;stroke-width:27.1268177;stroke-linecap:butt;stroke-linejoin:miter;stroke-miterlimit:4;stroke-dasharray:none;stroke-opacity:1"
           id="path6872"
           d="m 567.11945,297.25031 c -0.0684,8.72644 -11.79681,4.21315 -14.50393,-0.11364 -7.33613,-11.72535 3.46587,-25.40532 14.7312,-28.89422 20.15103,-6.24083 39.36731,10.14986 43.28451,29.34877 5.74865,28.17516 -16.86521,53.57896 -43.96633,57.6748 -21.85992,3.30372 -43.95926,-6.41374 -57.58735,-23.55336" />
        <path
           transform="matrix(-0.4799928,0.87727243,0.87727243,0.4799928,-1636.7907,-583.98653)"
           d="m 567.11945,297.25031 c -0.0684,8.72644 -11.79681,4.21315 -14.50393,-0.11364 -7.33613,-11.72535 3.46587,-25.40532 14.7312,-28.89422 20.15103,-6.24083 39.36731,10.14986 43.28451,29.34877 5.74865,28.17516 -16.86521,53.57896 -43.96633,57.6748 -21.85992,3.30372 -43.95926,-6.41374 -57.58735,-23.55336"
           id="path6874"
           style="fill:none;fill-rule:evenodd;stroke:#000000;stroke-width:27.1268177;stroke-linecap:butt;stroke-linejoin:miter;stroke-miterlimit:4;stroke-dasharray:none;stroke-opacity:1" />
        <path
           transform="rotate(170.22451,-606.54604,230.17472)"
           style="fill:none;fill-rule:evenodd;stroke:#000000;stroke-width:27.1268177;stroke-linecap:butt;stroke-linejoin:miter;stroke-miterlimit:4;stroke-dasharray:none;stroke-opacity:1"
           id="path6876"
           d="m 567.11945,297.25031 c -0.0684,8.72644 -11.79681,4.21315 -14.50393,-0.11364 -7.33613,-11.72535 3.46587,-25.40532 14.7312,-28.89422 20.15103,-6.24083 39.36731,10.14986 43.28451,29.34877 5.74865,28.17516 -16.86521,53.57896 -43.96633,57.6748 -21.85992,3.30372 -43.95926,-6.41374 -57.58735,-23.55336" />
        <g
           id="g6882"
           transform="rotate(-104.51768,-511.91692,611.48273)"
           style="stroke:#000000;stroke-width:27.1268158;stroke-miterlimit:4;stroke-dasharray:none;stroke-opacity:1">
          <path
             transform="matrix(0.25559213,0.52772074,-0.52772074,0.25559213,260.90261,-494.5922)"
             d="m 638.41638,-212.34877 c -9.96382,6.75423 -14.02037,-10.09873 -11.22598,-16.56052 7.57262,-17.51106 31.56525,-15.9536 44.34702,-5.89144 22.86358,17.99885 19.29361,52.6542 0.5569,72.13352 -27.49687,28.58667 -74.05124,22.79346 -99.92001,-4.77764 -34.47902,-36.74794 -26.36508,-95.56051 10.11217,-127.70652 45.9029,-40.45246 117.12399,-29.97454 155.49302,15.44672 32.43202,38.39304 37.24274,93.88704 15.04607,138.47513"
             id="path6878"
             style="fill:none;fill-rule:evenodd;stroke:#000000;stroke-width:46.26317978;stroke-linecap:butt;stroke-linejoin:miter;stroke-miterlimit:4;stroke-dasharray:none;stroke-opacity:1" />
          <path
             transform="matrix(-0.61739869,-0.28525014,-0.28525014,0.61739869,936.39058,-324.90837)"
             d="m 567.11945,297.25031 c -0.0684,8.72644 -11.79681,4.21315 -14.50393,-0.11364 -7.33613,-11.72535 3.46587,-25.40532 14.7312,-28.89422 20.15103,-6.24083 39.36731,10.14986 43.28451,29.34877 5.74865,28.17516 -16.86521,53.57896 -43.96633,57.6748 -21.85992,3.30372 -43.95926,-6.41374 -57.58735,-23.55336"
             id="path6880"
             style="fill:none;fill-rule:evenodd;stroke:#000000;stroke-width:39.88595963;stroke-linecap:butt;stroke-linejoin:miter;stroke-miterlimit:4;stroke-dasharray:none;stroke-opacity:1" />
        </g>
        <path
           transform="matrix(-0.98480875,0.17364251,0.17364251,0.98480875,-95.668219,-183.9089)"
           style="fill:none;fill-rule:evenodd;stroke:#000000;stroke-width:27.1268177;stroke-linecap:butt;stroke-linejoin:miter;stroke-miterlimit:4;stroke-dasharray:none;stroke-opacity:1"
           id="path6884"
           d="m 922.85712,-361.92352 c -1.82155,10.36757 -14.87398,2.65959 -17.2316,-3.02753 -6.38901,-15.41173 9.18936,-29.53168 23.28664,-31.43566 25.21673,-3.40579 44.80834,19.92507 45.63974,43.54576 0.60899,17.30163 -7.62728,33.96441 -20.80379,44.97664" />
        <path
           transform="rotate(-9.5415778,1814.0866,15683.051)"
           d="m 922.85712,-361.92352 c -1.82155,10.36757 -14.87398,2.65959 -17.2316,-3.02753 -6.38901,-15.41173 9.18936,-29.53168 23.28664,-31.43566 25.21673,-3.40579 44.80834,19.92507 45.63974,43.54576 0.60899,17.30163 -7.62728,33.96441 -20.80379,44.97664"
           id="path6886"
           style="fill:none;fill-rule:evenodd;stroke:#000000;stroke-width:27.1268177;stroke-linecap:butt;stroke-linejoin:miter;stroke-miterlimit:4;stroke-dasharray:none;stroke-opacity:1" />
        <path
           transform="rotate(16.720765,-183.52212,-8365.7398)"
           style="fill:none;fill-rule:evenodd;stroke:#000000;stroke-width:27.1268177;stroke-linecap:butt;stroke-linejoin:miter;stroke-miterlimit:4;stroke-dasharray:none;stroke-opacity:1"
           id="path6888"
           d="m 922.85712,-361.92352 c -1.82155,10.36757 -14.87398,2.65959 -17.2316,-3.02753 -6.38901,-15.41173 9.18936,-29.53168 23.28664,-31.43566 25.21673,-3.40579 44.80834,19.92507 45.63974,43.54576 0.60899,17.30163 -7.62728,33.96441 -20.80379,44.97664" />
        <path
           transform="rotate(65.867771,-23.052721,-2042.8561)"
           d="m 922.85712,-361.92352 c -1.82155,10.36757 -14.87398,2.65959 -17.2316,-3.02753 -6.38901,-15.41173 9.18936,-29.53168 23.28664,-31.43566 25.21673,-3.40579 44.80834,19.92507 45.63974,43.54576 0.60899,17.30163 -7.62728,33.96441 -20.80379,44.97664"
           id="path6890"
           style="fill:none;fill-rule:evenodd;stroke:#000000;stroke-width:27.1268177;stroke-linecap:butt;stroke-linejoin:miter;stroke-miterlimit:4;stroke-dasharray:none;stroke-opacity:1" />
      </g>
      <path
         style="fill:none;fill-opacity:0.18292685;stroke:#000000;stroke-width:0.64989036;stroke-miterlimit:4;stroke-dasharray:none;stroke-dashoffset:0;stroke-opacity:1"
         d="m -41.57442,168.33339 c -4.777029,0 -9.358414,-1.89767 -12.736277,-5.27554 -3.377878,-3.37787 -5.275538,-7.95925 -5.275538,-12.73628 0,-4.77703 1.89766,-9.35841 5.275538,-12.73628 1.860168,-1.86018 4.085338,-3.27146 6.683647,-4.21047 0.160662,-0.0581 0.679008,-0.222 1.127753,-0.37386"
         id="path6894" />
    </g>
    <g
       id="tree-right">
      <g
         style="fill:none;stroke:#000000;stroke-width:27.1268177;stroke-miterlimit:4;stroke-dasharray:none;stroke-opacity:1"
         transform="matrix(-0.02395749,0,0,0.02395749,-66.08679,114.54704)"
         id="g6934">
        <path
           id="path6896"
           d="m -1261.8599,781.4624 c 14.164,-4.79319 29.0457,-8.65357 33.9,-11.18499 m 0,0 c 135.2167,-70.513 116.205,-279.51604 83.8758,-396.4174 -34.3709,-111.56974 -155.0277,-182.84508 -268.5094,-146.47788 -96.2961,30.8598 -157.7407,136.02347 -124.6577,234.16279 27.3157,81.03094 117.04,132.68545 199.8162,102.83757 65.7791,-23.71895 107.7139,-98.09556 81.0175,-165.46965 -20.0297,-50.54917 -79.2369,-82.90149 -131.1231,-59.19726 -35.356,16.15236 -58.4461,60.61893 -37.3771,96.77651 11.7785,20.2137 43.0467,34.9768 62.4299,15.55695 7.1526,-7.16616 10.6335,-31.85169 -6.2632,-28.08337"
           style="fill:none;fill-opacity:0.18292685;stroke:#000000;stroke-width:27.1268177;stroke-miterlimit:4;stroke-dasharray:none;stroke-dashoffset:0;stroke-opacity:1" />
        <path
           transform="scale(-1,1)"
           d="m 1197.0386,30.742971 c 14.413,-3.214431 11.4439,17.842643 5.3426,23.955469 -16.5342,16.565383 -43.2064,3.972275 -53.2536,-13.270275 -17.972,-30.842877 1.7241,-68.773433 31.8832,-82.5516 44.2596,-20.220014 94.7641,7.376932 111.8496,50.4960188 22.7724,57.4709612 -12.9985,120.9151662 -69.1088,141.1477362 -70.6092,25.46062 -147.1452,-18.60134 -170.4458,-87.721767 -28.2203,-83.714098 24.1928,-173.420063 106.3346,-199.743863 96.8013,-31.02169 199.7231,29.77709 229.0419,124.947506 28.3699,92.089861 -15.7386,192.553414 -98.7654,239.333484"
           id="path6898"
           style="fill:none;fill-rule:evenodd;stroke:#000000;stroke-width:27.1268177;stroke-linecap:butt;stroke-linejoin:miter;stroke-miterlimit:4;stroke-dasharray:none;stroke-opacity:1" />
        <path
           transform="matrix(0.29451988,0.81028804,-0.81028804,0.29451988,-1507.9209,-709.39658)"
           d="m 638.41638,-212.34877 c -9.96382,6.75423 -14.02037,-10.09873 -11.22598,-16.56052 7.57262,-17.51106 31.56525,-15.9536 44.34702,-5.89144 22.86358,17.99885 19.29361,52.6542 0.5569,72.13352 -27.49687,28.58667 -74.05124,22.79346 -99.92001,-4.77764 -34.47902,-36.74794 -26.36508,-95.56051 10.11217,-127.70652 45.9029,-40.45246 117.12399,-29.97454 155.49302,15.44672 32.43202,38.39304 37.24274,93.88704 15.04607,138.47513"
           id="path6900"
           style="fill:none;fill-rule:evenodd;stroke:#000000;stroke-width:31.46402168;stroke-linecap:butt;stroke-linejoin:miter;stroke-miterlimit:4;stroke-dasharray:none;stroke-opacity:1" />
        <path
           transform="matrix(0.79962643,-0.32234491,0.32234491,0.79962643,-1953.0413,390.02023)"
           style="fill:none;fill-rule:evenodd;stroke:#000000;stroke-width:31.46402168;stroke-linecap:butt;stroke-linejoin:miter;stroke-miterlimit:4;stroke-dasharray:none;stroke-opacity:1"
           id="path6902"
           d="m 638.41638,-212.34877 c -9.96382,6.75423 -14.02037,-10.09873 -11.22598,-16.56052 7.57262,-17.51106 31.56525,-15.9536 44.34702,-5.89144 22.86358,17.99885 19.29361,52.6542 0.5569,72.13352 -27.49687,28.58667 -74.05124,22.79346 -99.92001,-4.77764 -34.47902,-36.74794 -26.36508,-95.56051 10.11217,-127.70652 45.9029,-40.45246 117.12399,-29.97454 155.49302,15.44672 32.43202,38.39304 37.24274,93.88704 15.04607,138.47513" />
        <path
           transform="matrix(1.0033422,0.20050165,-0.20050165,1.0033422,-2090.1572,-128.52916)"
           style="fill:none;fill-rule:evenodd;stroke:#000000;stroke-width:26.51227379;stroke-linecap:butt;stroke-linejoin:miter;stroke-miterlimit:4;stroke-dasharray:none;stroke-opacity:1"
           id="path6904"
           d="m 638.41638,-212.34877 c -9.96382,6.75423 -14.02037,-10.09873 -11.22598,-16.56052 7.57262,-17.51106 31.56525,-15.9536 44.34702,-5.89144 22.86358,17.99885 19.29361,52.6542 0.5569,72.13352 -27.49687,28.58667 -74.05124,22.79346 -99.92001,-4.77764 -34.47902,-36.74794 -26.36508,-95.56051 10.11217,-127.70652 45.9029,-40.45246 117.12399,-29.97454 155.49302,15.44672 32.43202,38.39304 37.24274,93.88704 15.04607,138.47513" />
        <path
           transform="matrix(0.99155294,-0.25242672,0.25242672,0.99155294,-2232.0538,643.15505)"
           d="m 638.41638,-212.34877 c -9.96382,6.75423 -14.02037,-10.09873 -11.22598,-16.56052 7.57262,-17.51106 31.56525,-15.9536 44.34702,-5.89144 22.86358,17.99885 19.29361,52.6542 0.5569,72.13352 -27.49687,28.58667 -74.05124,22.79346 -99.92001,-4.77764 -34.47902,-36.74794 -26.36508,-95.56051 10.11217,-127.70652 45.9029,-40.45246 117.12399,-29.97454 155.49302,15.44672 32.43202,38.39304 37.24274,93.88704 15.04607,138.47513"
           id="path6906"
           style="fill:none;fill-rule:evenodd;stroke:#000000;stroke-width:26.51227379;stroke-linecap:butt;stroke-linejoin:miter;stroke-miterlimit:4;stroke-dasharray:none;stroke-opacity:1" />
        <path
           transform="matrix(0.03468994,0.64184718,0.64184718,-0.03468994,-1115.7314,-812.64122)"
           style="fill:none;fill-rule:evenodd;stroke:#000000;stroke-width:42.20207596;stroke-linecap:butt;stroke-linejoin:miter;stroke-miterlimit:4;stroke-dasharray:none;stroke-opacity:1"
           id="path6908"
           d="m 638.41638,-212.34877 c -9.96382,6.75423 -14.02037,-10.09873 -11.22598,-16.56052 7.57262,-17.51106 31.56525,-15.9536 44.34702,-5.89144 22.86358,17.99885 19.29361,52.6542 0.5569,72.13352 -27.49687,28.58667 -74.05124,22.79346 -99.92001,-4.77764 -34.47902,-36.74794 -26.36508,-95.56051 10.11217,-127.70652 45.9029,-40.45246 117.12399,-29.97454 155.49302,15.44672 32.43202,38.39304 37.24274,93.88704 15.04607,138.47513" />
        <path
           transform="matrix(0.44620585,-0.46267865,-0.46267865,-0.44620585,-2074.378,629.06073)"
           d="m 638.41638,-212.34877 c -9.96382,6.75423 -14.02037,-10.09873 -11.22598,-16.56052 7.57262,-17.51106 31.56525,-15.9536 44.34702,-5.89144 22.86358,17.99885 19.29361,52.6542 0.5569,72.13352 -27.49687,28.58667 -74.05124,22.79346 -99.92001,-4.77764 -34.47902,-36.74794 -26.36508,-95.56051 10.11217,-127.70652 45.9029,-40.45246 117.12399,-29.97454 155.49302,15.44672 32.43202,38.39304 37.24274,93.88704 15.04607,138.47513"
           id="path6910"
           style="fill:none;fill-rule:evenodd;stroke:#000000;stroke-width:42.20207596;stroke-linecap:butt;stroke-linejoin:miter;stroke-miterlimit:4;stroke-dasharray:none;stroke-opacity:1" />
        <path
           transform="matrix(0.64102193,-0.04756129,0.04756129,0.64102193,-2193.916,313.14304)"
           style="fill:none;fill-rule:evenodd;stroke:#000000;stroke-width:42.20207596;stroke-linecap:butt;stroke-linejoin:miter;stroke-miterlimit:4;stroke-dasharray:none;stroke-opacity:1"
           id="path6912"
           d="m 638.41638,-212.34877 c -9.96382,6.75423 -14.02037,-10.09873 -11.22598,-16.56052 7.57262,-17.51106 31.56525,-15.9536 44.34702,-5.89144 22.86358,17.99885 19.29361,52.6542 0.5569,72.13352 -27.49687,28.58667 -74.05124,22.79346 -99.92001,-4.77764 -34.47902,-36.74794 -26.36508,-95.56051 10.11217,-127.70652 45.9029,-40.45246 117.12399,-29.97454 155.49302,15.44672 32.43202,38.39304 37.24274,93.88704 15.04607,138.47513" />
        <path
           transform="rotate(-17.159785,-961.90862,7075.8501)"
           d="m 567.11945,297.25031 c -0.0684,8.72644 -11.79681,4.21315 -14.50393,-0.11364 -7.33613,-11.72535 3.46587,-25.40532 14.7312,-28.89422 20.15103,-6.24083 39.36731,10.14986 43.28451,29.34877 5.74865,28.17516 -16.86521,53.57896 -43.96633,57.6748 -21.85992,3.30372 -43.95926,-6.41374 -57.58735,-23.55336"
           id="path6914"
           style="fill:none;fill-rule:evenodd;stroke:#000000;stroke-width:27.1268177;stroke-linecap:butt;stroke-linejoin:miter;stroke-miterlimit:4;stroke-dasharray:none;stroke-opacity:1" />
        <path
           transform="matrix(-0.4799928,0.87727243,0.87727243,0.4799928,-1636.7907,-583.98653)"
           style="fill:none;fill-rule:evenodd;stroke:#000000;stroke-width:27.1268177;stroke-linecap:butt;stroke-linejoin:miter;stroke-miterlimit:4;stroke-dasharray:none;stroke-opacity:1"
           id="path6916"
           d="m 567.11945,297.25031 c -0.0684,8.72644 -11.79681,4.21315 -14.50393,-0.11364 -7.33613,-11.72535 3.46587,-25.40532 14.7312,-28.89422 20.15103,-6.24083 39.36731,10.14986 43.28451,29.34877 5.74865,28.17516 -16.86521,53.57896 -43.96633,57.6748 -21.85992,3.30372 -43.95926,-6.41374 -57.58735,-23.55336" />
        <path
           transform="rotate(170.22451,-606.54604,230.17472)"
           d="m 567.11945,297.25031 c -0.0684,8.72644 -11.79681,4.21315 -14.50393,-0.11364 -7.33613,-11.72535 3.46587,-25.40532 14.7312,-28.89422 20.15103,-6.24083 39.36731,10.14986 43.28451,29.34877 5.74865,28.17516 -16.86521,53.57896 -43.96633,57.6748 -21.85992,3.30372 -43.95926,-6.41374 -57.58735,-23.55336"
           id="path6918"
           style="fill:none;fill-rule:evenodd;stroke:#000000;stroke-width:27.1268177;stroke-linecap:butt;stroke-linejoin:miter;stroke-miterlimit:4;stroke-dasharray:none;stroke-opacity:1" />
        <g
           style="stroke:#000000;stroke-width:27.1268158;stroke-miterlimit:4;stroke-dasharray:none;stroke-opacity:1"
           transform="rotate(-104.51768,-511.91692,611.48273)"
           id="g6924">
          <path
             transform="matrix(0.25559213,0.52772074,-0.52772074,0.25559213,260.90261,-494.5922)"
             style="fill:none;fill-rule:evenodd;stroke:#000000;stroke-width:46.26317978;stroke-linecap:butt;stroke-linejoin:miter;stroke-miterlimit:4;stroke-dasharray:none;stroke-opacity:1"
             id="path6920"
             d="m 638.41638,-212.34877 c -9.96382,6.75423 -14.02037,-10.09873 -11.22598,-16.56052 7.57262,-17.51106 31.56525,-15.9536 44.34702,-5.89144 22.86358,17.99885 19.29361,52.6542 0.5569,72.13352 -27.49687,28.58667 -74.05124,22.79346 -99.92001,-4.77764 -34.47902,-36.74794 -26.36508,-95.56051 10.11217,-127.70652 45.9029,-40.45246 117.12399,-29.97454 155.49302,15.44672 32.43202,38.39304 37.24274,93.88704 15.04607,138.47513" />
          <path
             transform="matrix(-0.61739869,-0.28525014,-0.28525014,0.61739869,936.39058,-324.90837)"
             style="fill:none;fill-rule:evenodd;stroke:#000000;stroke-width:39.88595963;stroke-linecap:butt;stroke-linejoin:miter;stroke-miterlimit:4;stroke-dasharray:none;stroke-opacity:1"
             id="path6922"
             d="m 567.11945,297.25031 c -0.0684,8.72644 -11.79681,4.21315 -14.50393,-0.11364 -7.33613,-11.72535 3.46587,-25.40532 14.7312,-28.89422 20.15103,-6.24083 39.36731,10.14986 43.28451,29.34877 5.74865,28.17516 -16.86521,53.57896 -43.96633,57.6748 -21.85992,3.30372 -43.95926,-6.41374 -57.58735,-23.55336" />
        </g>
        <path
           transform="matrix(-0.98480875,0.17364251,0.17364251,0.98480875,-95.668219,-183.9089)"
           d="m 922.85712,-361.92352 c -1.82155,10.36757 -14.87398,2.65959 -17.2316,-3.02753 -6.38901,-15.41173 9.18936,-29.53168 23.28664,-31.43566 25.21673,-3.40579 44.80834,19.92507 45.63974,43.54576 0.60899,17.30163 -7.62728,33.96441 -20.80379,44.97664"
           id="path6926"
           style="fill:none;fill-rule:evenodd;stroke:#000000;stroke-width:27.1268177;stroke-linecap:butt;stroke-linejoin:miter;stroke-miterlimit:4;stroke-dasharray:none;stroke-opacity:1" />
        <path
           transform="rotate(-9.5415778,1814.0866,15683.051)"
           style="fill:none;fill-rule:evenodd;stroke:#000000;stroke-width:27.1268177;stroke-linecap:butt;stroke-linejoin:miter;stroke-miterlimit:4;stroke-dasharray:none;stroke-opacity:1"
           id="path6928"
           d="m 922.85712,-361.92352 c -1.82155,10.36757 -14.87398,2.65959 -17.2316,-3.02753 -6.38901,-15.41173 9.18936,-29.53168 23.28664,-31.43566 25.21673,-3.40579 44.80834,19.92507 45.63974,43.54576 0.60899,17.30163 -7.62728,33.96441 -20.80379,44.97664" />
        <path
           transform="rotate(16.720765,-183.52212,-8365.7398)"
           d="m 922.85712,-361.92352 c -1.82155,10.36757 -14.87398,2.65959 -17.2316,-3.02753 -6.38901,-15.41173 9.18936,-29.53168 23.28664,-31.43566 25.21673,-3.40579 44.80834,19.92507 45.63974,43.54576 0.60899,17.30163 -7.62728,33.96441 -20.80379,44.97664"
           id="path6930"
           style="fill:none;fill-rule:evenodd;stroke:#000000;stroke-width:27.1268177;stroke-linecap:butt;stroke-linejoin:miter;stroke-miterlimit:4;stroke-dasharray:none;stroke-opacity:1" />
        <path
           transform="rotate(65.867771,-23.052721,-2042.8561)"
           style="fill:none;fill-rule:evenodd;stroke:#000000;stroke-width:27.1268177;stroke-linecap:butt;stroke-linejoin:miter;stroke-miterlimit:4;stroke-dasharray:none;stroke-opacity:1"
           id="path6932"
           d="m 922.85712,-361.92352 c -1.82155,10.36757 -14.87398,2.65959 -17.2316,-3.02753 -6.38901,-15.41173 9.18936,-29.53168 23.28664,-31.43566 25.21673,-3.40579 44.80834,19.92507 45.63974,43.54576 0.60899,17.30163 -7.62728,33.96441 -20.80379,44.97664" />
      </g>
      <path
         id="path6936"
         d="m -41.592829,168.33338 c 4.777028,0 9.358414,-1.89767 12.736276,-5.27554 3.377879,-3.37787 5.275538,-7.95925 5.275538,-12.73628 0,-4.77703 -1.897659,-9.35841 -5.275538,-12.73628 -1.860168,-1.86017 -4.085337,-3.27146 -6.683646,-4.21047 -0.160662,-0.0581 -0.679008,-0.222 -1.127754,-0.37386"
         style="fill:none;fill-opacity:0.18292685;stroke:#000000;stroke-width:0.64989036;stroke-miterlimit:4;stroke-dasharray:none;stroke-dashoffset:0;stroke-opacity:1" />
    </g>
    <g
       id="seed">
      <ellipse
         ry="8.0076628"
         rx="8.0076618"
         cy="150.32156"
         cx="-41.574451"
         style="fill:none;stroke:#000000;stroke-width:0.64989036;stroke-linecap:butt;stroke-linejoin:miter;stroke-miterlimit:4;stroke-dasharray:none;stroke-opacity:1"
         id="ellipse6792" />
      <ellipse
         ry="8.0076628"
         rx="8.0076618"
         cy="142.3139"
         cx="-41.574451"
         style="fill:none;stroke:#000000;stroke-width:0.64989036;stroke-linecap:butt;stroke-linejoin:miter;stroke-miterlimit:4;stroke-dasharray:none;stroke-opacity:1"
         id="ellipse6794" />
      <ellipse
         ry="8.0076628"
         rx="8.0076618"
         cy="158.32924"
         cx="-41.574451"
         style="fill:none;stroke:#000000;stroke-width:0.64989036;stroke-linecap:butt;stroke-linejoin:miter;stroke-miterlimit:4;stroke-dasharray:none;stroke-opacity:1"
         id="ellipse6796" />
      <ellipse
         ry="8.0076628"
         rx="8.0076618"
         cy="146.31775"
         cx="-48.510788"
         style="fill:none;stroke:#000000;stroke-width:0.64989036;stroke-linecap:butt;stroke-linejoin:miter;stroke-miterlimit:4;stroke-dasharray:none;stroke-opacity:1"
         id="ellipse6798" />
      <ellipse
         ry="8.0076628"
         rx="8.0076618"
         cy="146.31775"
         cx="-34.638035"
         style="fill:none;stroke:#000000;stroke-width:0.64989036;stroke-linecap:butt;stroke-linejoin:miter;stroke-miterlimit:4;stroke-dasharray:none;stroke-opacity:1"
         id="ellipse6800" />
      <ellipse
         ry="8.0076628"
         rx="8.0076618"
         cy="154.32541"
         cx="-48.510788"
         style="fill:none;stroke:#000000;stroke-width:0.64989036;stroke-linecap:butt;stroke-linejoin:miter;stroke-miterlimit:4;stroke-dasharray:none;stroke-opacity:1"
         id="ellipse6802" />
      <ellipse
         ry="8.0076628"
         rx="8.0076618"
         cy="154.32541"
         cx="-34.638035"
         style="fill:none;stroke:#000000;stroke-width:0.64989036;stroke-linecap:butt;stroke-linejoin:miter;stroke-miterlimit:4;stroke-dasharray:none;stroke-opacity:1"
         id="ellipse6804" />
      <path
         id="path6806"
         d="m -27.702679,150.3225 c -4.422511,0 -8.007666,-3.58515 -8.007666,-8.00766 0,-1.46453 0.393173,-2.83724 1.079696,-4.01832"
         style="fill:none;stroke:#000000;stroke-width:0.64989036;stroke-linecap:butt;stroke-linejoin:miter;stroke-miterlimit:4;stroke-dasharray:none;stroke-opacity:1" />
      <path
         style="fill:none;stroke:#000000;stroke-width:0.64989036;stroke-linecap:butt;stroke-linejoin:miter;stroke-miterlimit:4;stroke-dasharray:none;stroke-opacity:1"
         d="m -34.639739,138.30982 c -2.211256,3.83001 -7.108666,5.14226 -10.93867,2.93101 -1.268317,-0.73227 -2.260544,-1.7591 -2.940127,-2.9442"
         id="path6808" />
      <path
         style="fill:none;stroke:#000000;stroke-width:0.64989036;stroke-linecap:butt;stroke-linejoin:miter;stroke-miterlimit:4;stroke-dasharray:none;stroke-opacity:1"
         d="m -48.494876,138.30868 c 2.211256,3.83 0.898984,8.72741 -2.93102,10.93867 -1.268317,0.73226 -2.653685,1.07813 -4.019806,1.07412"
         id="path6810" />
      <path
         style="fill:none;stroke:#000000;stroke-width:0.64989036;stroke-linecap:butt;stroke-linejoin:miter;stroke-miterlimit:4;stroke-dasharray:none;stroke-opacity:1"
         d="m -34.639739,162.33332 c -2.211256,-3.83 -7.108666,-5.14226 -10.93867,-2.931 -1.268317,0.73226 -2.260544,1.7591 -2.940127,2.9442"
         id="path6812" />
      <path
         style="fill:none;stroke:#000000;stroke-width:0.64989036;stroke-linecap:butt;stroke-linejoin:miter;stroke-miterlimit:4;stroke-dasharray:none;stroke-opacity:1"
         d="m -55.438155,150.3055 c 4.422512,-1e-5 8.00765,3.58515 8.007667,8.00766 0,1.46453 -0.393157,2.83723 -1.079696,4.01832"
         id="path6814" />
      <path
         id="path6816"
         d="m -27.711768,150.30733 c -4.422512,0 -8.00765,3.58516 -8.00765,8.00767 -1.7e-5,1.46453 0.393156,2.83723 1.079679,4.01832"
         style="fill:none;stroke:#000000;stroke-width:0.64989036;stroke-linecap:butt;stroke-linejoin:miter;stroke-miterlimit:4;stroke-dasharray:none;stroke-opacity:1" />
      <path
         style="fill:none;stroke:#000000;stroke-width:0.64989036;stroke-linecap:butt;stroke-linejoin:miter;stroke-miterlimit:4;stroke-dasharray:none;stroke-opacity:1"
         d="m -27.681562,158.36204 c -0.71417,-1.18846 -1.128804,-2.57805 -1.138779,-4.06502 -0.0098,-1.4645 0.374123,-2.83981 1.052721,-4.02547"
         id="path6818" />
      <path
         id="path6820"
         d="m -55.52221,158.39571 c 0.714169,-1.18846 1.12882,-2.57805 1.138795,-4.06502 0.0098,-1.4645 -0.374124,-2.83981 -1.052722,-4.02548"
         style="fill:none;stroke:#000000;stroke-width:0.64989036;stroke-linecap:butt;stroke-linejoin:miter;stroke-miterlimit:4;stroke-dasharray:none;stroke-opacity:1" />
      <path
         style="fill:none;stroke:#000000;stroke-width:0.64989036;stroke-linecap:butt;stroke-linejoin:miter;stroke-miterlimit:4;stroke-dasharray:none;stroke-opacity:1"
         d="m -55.588562,150.50452 c 0.714169,-1.18846 1.12882,-2.57805 1.138795,-4.06503 0.0098,-1.46449 -0.374124,-2.8398 -1.052722,-4.02547"
         id="path6822" />
      <path
         id="path6824"
         d="m -27.703893,150.32277 c -0.714169,-1.18846 -1.12882,-2.57805 -1.138795,-4.06503 -0.0098,-1.46449 0.374123,-2.8398 1.052721,-4.02547"
         style="fill:none;stroke:#000000;stroke-width:0.64989036;stroke-linecap:butt;stroke-linejoin:miter;stroke-miterlimit:4;stroke-dasharray:none;stroke-opacity:1" />
      <path
         style="fill:none;stroke:#000000;stroke-width:0.64989036;stroke-linecap:butt;stroke-linejoin:miter;stroke-miterlimit:4;stroke-dasharray:none;stroke-opacity:1"
         d="m -27.590287,142.28079 c -1.38632,0.0243 -2.79707,-0.31144 -4.089817,-1.04629 -1.27319,-0.72375 -2.272275,-1.74391 -2.959799,-2.92442"
         id="path6826" />
      <path
         id="path6828"
         d="m -34.639197,138.31127 c -1.386336,0.0243 -2.79707,-0.31144 -4.089817,-1.04629 -1.273206,-0.72375 -2.272276,-1.74391 -2.959799,-2.92442"
         style="fill:none;stroke:#000000;stroke-width:0.64989036;stroke-linecap:butt;stroke-linejoin:miter;stroke-miterlimit:4;stroke-dasharray:none;stroke-opacity:1" />
      <path
         style="fill:none;stroke:#000000;stroke-width:0.64989036;stroke-linecap:butt;stroke-linejoin:miter;stroke-miterlimit:4;stroke-dasharray:none;stroke-opacity:1"
         d="m -48.738429,138.31127 c 1.386319,0.0243 2.797069,-0.31144 4.089817,-1.04629 1.273189,-0.72375 2.272275,-1.74391 2.959799,-2.92442"
         id="path6830" />
      <path
         id="path6832"
         d="m -55.507559,142.38467 c 1.386238,0.0282 2.797923,-0.30352 4.092754,-1.0347 1.275241,-0.72013 2.277214,-1.73746 2.968069,-2.91602"
         style="fill:none;stroke:#000000;stroke-width:0.64989036;stroke-linecap:butt;stroke-linejoin:miter;stroke-miterlimit:4;stroke-dasharray:none;stroke-opacity:1" />
      <path
         style="fill:none;stroke:#000000;stroke-width:0.64989036;stroke-linecap:butt;stroke-linejoin:miter;stroke-miterlimit:4;stroke-dasharray:none;stroke-opacity:1"
         d="m -55.569956,158.38261 c 1.386253,-0.0282 2.797939,0.30352 4.092753,1.0347 1.275257,0.72013 2.277214,1.73745 2.968085,2.91601"
         id="path6834" />
      <path
         id="path6836"
         d="m -48.672668,162.3334 c 1.386254,-0.0282 2.797939,0.30351 4.092754,1.0347 1.275257,0.72013 2.277214,1.73746 2.968085,2.91601"
         style="fill:none;stroke:#000000;stroke-width:0.64989036;stroke-linecap:butt;stroke-linejoin:miter;stroke-miterlimit:4;stroke-dasharray:none;stroke-opacity:1" />
      <path
         style="fill:none;stroke:#000000;stroke-width:0.64989036;stroke-linecap:butt;stroke-linejoin:miter;stroke-miterlimit:4;stroke-dasharray:none;stroke-opacity:1"
         d="m -34.639739,162.33332 c -1.386254,-0.0282 -2.797939,0.30352 -4.092754,1.0347 -1.275257,0.72013 -2.277214,1.73746 -2.968084,2.91602"
         id="path6838" />
      <path
         id="path6840"
         d="m -27.684548,158.29675 c -1.386254,-0.0282 -2.797939,0.30351 -4.09277,1.03469 -1.275241,0.72014 -2.277198,1.73746 -2.968069,2.91602"
         style="fill:none;stroke:#000000;stroke-width:0.64989036;stroke-linecap:butt;stroke-linejoin:miter;stroke-miterlimit:4;stroke-dasharray:none;stroke-opacity:1" />
      <path
         style="fill:none;stroke:#000000;stroke-width:0.64989036;stroke-linecap:butt;stroke-linejoin:miter;stroke-miterlimit:4;stroke-dasharray:none;stroke-opacity:1"
         d="m -34.639739,146.31749 c -1.386319,0.0242 -2.797069,-0.31145 -4.0898,-1.0463 -1.273206,-0.72374 -2.272292,-1.74391 -2.959816,-2.92442"
         id="path6842" />
      <path
         id="path6844"
         d="m -48.738954,146.31749 c 1.386319,0.0242 2.797053,-0.31145 4.0898,-1.0463 1.273206,-0.72374 2.272292,-1.74391 2.959799,-2.92442"
         style="fill:none;stroke:#000000;stroke-width:0.64989036;stroke-linecap:butt;stroke-linejoin:miter;stroke-miterlimit:4;stroke-dasharray:none;stroke-opacity:1" />
      <path
         style="fill:none;stroke:#000000;stroke-width:0.64989036;stroke-linecap:butt;stroke-linejoin:miter;stroke-miterlimit:4;stroke-dasharray:none;stroke-opacity:1"
         d="m -48.509347,154.32527 c 1.386319,-0.0243 2.797069,0.31144 4.0898,1.04629 1.273206,0.72375 2.272292,1.74391 2.959815,2.92442"
         id="path6846" />
      <path
         id="path6848"
         d="m -34.639739,154.32566 c -1.386319,-0.0243 -2.797069,0.31145 -4.0898,1.0463 -1.273206,0.72374 -2.272292,1.7439 -2.959816,2.92441"
         style="fill:none;stroke:#000000;stroke-width:0.64989036;stroke-linecap:butt;stroke-linejoin:miter;stroke-miterlimit:4;stroke-dasharray:none;stroke-opacity:1" />
      <path
         style="fill:none;stroke:#000000;stroke-width:0.64989036;stroke-linecap:butt;stroke-linejoin:miter;stroke-miterlimit:4;stroke-dasharray:none;stroke-opacity:1"
         d="m -34.639755,146.31802 c -0.71417,1.18846 -1.128804,2.57805 -1.13878,4.06503 -0.0098,1.46449 0.374124,2.8398 1.052722,4.02547"
         id="path6850" />
      <path
         id="path6852"
         d="m -48.595405,146.23477 c 0.71417,1.18846 1.128804,2.57805 1.138779,4.06503 0.0098,1.46449 -0.374123,2.8398 -1.052721,4.02547"
         style="fill:none;stroke:#000000;stroke-width:0.64989036;stroke-linecap:butt;stroke-linejoin:miter;stroke-miterlimit:4;stroke-dasharray:none;stroke-opacity:1" />
      <path
         id="path6938"
         d="m -41.602756,142.43106 c -0.714153,-1.18846 -1.128803,-2.57805 -1.138779,-4.06503 -0.0098,-1.46449 0.374124,-2.8398 1.052722,-4.02547"
         style="fill:none;stroke:#000000;stroke-width:0.64989036;stroke-linecap:butt;stroke-linejoin:miter;stroke-miterlimit:4;stroke-dasharray:none;stroke-opacity:1" />
      <path
         style="fill:none;stroke:#000000;stroke-width:0.64989036;stroke-linecap:butt;stroke-linejoin:miter;stroke-miterlimit:4;stroke-dasharray:none;stroke-opacity:1"
         d="m -41.774887,142.43106 c 0.714169,-1.18846 1.12882,-2.57805 1.138796,-4.06503 0.0098,-1.46449 -0.374124,-2.8398 -1.052722,-4.02547"
         id="path6940" />
      <path
         style="fill:none;stroke:#000000;stroke-width:0.64989036;stroke-linecap:butt;stroke-linejoin:miter;stroke-miterlimit:4;stroke-dasharray:none;stroke-opacity:1"
         d="m -41.373674,166.38648 c -0.71417,-1.18846 -1.128804,-2.57805 -1.13878,-4.06502 -0.0098,-1.4645 0.374124,-2.83981 1.052722,-4.02548"
         id="path6942" />
      <path
         id="path6944"
         d="m -41.545805,166.38648 c 0.714169,-1.18846 1.128819,-2.57805 1.138795,-4.06502 0.0098,-1.4645 -0.374124,-2.83981 -1.052722,-4.02548"
         style="fill:none;stroke:#000000;stroke-width:0.64989036;stroke-linecap:butt;stroke-linejoin:miter;stroke-miterlimit:4;stroke-dasharray:none;stroke-opacity:1" />
      <path
         id="path6946"
         d="m -27.681562,158.36204 c -1.386319,0.0243 -2.797053,-0.31144 -4.0898,-1.04629 -1.273206,-0.72375 -2.272276,-1.74391 -2.9598,-2.92442"
         style="fill:none;stroke:#000000;stroke-width:0.64989036;stroke-linecap:butt;stroke-linejoin:miter;stroke-miterlimit:4;stroke-dasharray:none;stroke-opacity:1" />
      <path
         style="fill:none;stroke:#000000;stroke-width:0.64989036;stroke-linecap:butt;stroke-linejoin:miter;stroke-miterlimit:4;stroke-dasharray:none;stroke-opacity:1"
         d="m -27.76762,158.51111 c -0.672149,-1.21272 -1.668249,-2.2666 -2.951021,-3.01873 -1.263377,-0.74075 -2.646415,-1.0959 -4.012521,-1.10105"
         id="path6948" />
      <path
         id="path6950"
         d="m -27.76762,158.51111 c -0.672149,-1.21272 -1.668249,-2.2666 -2.951021,-3.01873 -1.263377,-0.74075 -2.646415,-1.0959 -4.012521,-1.10105"
         style="fill:none;stroke:#000000;stroke-width:0.64989036;stroke-linecap:butt;stroke-linejoin:miter;stroke-miterlimit:4;stroke-dasharray:none;stroke-opacity:1" />
      <path
         style="fill:none;stroke:#000000;stroke-width:0.64989036;stroke-linecap:butt;stroke-linejoin:miter;stroke-miterlimit:4;stroke-dasharray:none;stroke-opacity:1"
         d="m -55.558963,158.29598 c 1.386319,0.0243 2.797069,-0.31144 4.089816,-1.04629 1.27319,-0.72375 2.272276,-1.74391 2.9598,-2.92442"
         id="path6952" />
      <path
         style="fill:none;stroke:#000000;stroke-width:0.64989036;stroke-linecap:butt;stroke-linejoin:miter;stroke-miterlimit:4;stroke-dasharray:none;stroke-opacity:1"
         d="m -55.472889,158.44505 c 0.672149,-1.21271 1.668249,-2.2666 2.951021,-3.01872 1.263377,-0.74075 2.646399,-1.0959 4.012521,-1.10106"
         id="path6954" />
      <path
         id="path6956"
         d="m -55.507559,142.38467 c 0.67215,1.21272 1.66825,2.2666 2.951022,3.01873 1.263377,0.74075 2.646399,1.0959 4.01252,1.10105"
         style="fill:none;stroke:#000000;stroke-width:0.64989036;stroke-linecap:butt;stroke-linejoin:miter;stroke-miterlimit:4;stroke-dasharray:none;stroke-opacity:1" />
      <path
         id="path6958"
         d="m -55.593632,142.53374 c 1.386319,-0.0243 2.797069,0.31144 4.089816,1.04629 1.27319,0.72375 2.272276,1.74391 2.959799,2.92442"
         style="fill:none;stroke:#000000;stroke-width:0.64989036;stroke-linecap:butt;stroke-linejoin:miter;stroke-miterlimit:4;stroke-dasharray:none;stroke-opacity:1" />
      <path
         style="fill:none;stroke:#000000;stroke-width:0.64989036;stroke-linecap:butt;stroke-linejoin:miter;stroke-miterlimit:4;stroke-dasharray:none;stroke-opacity:1"
         d="m -27.590304,142.28079 c -0.672149,1.21272 -1.668249,2.26661 -2.951021,3.01873 -1.263378,0.74075 -2.646399,1.0959 -4.012521,1.10105"
         id="path6960" />
      <path
         style="fill:none;stroke:#000000;stroke-width:0.64989036;stroke-linecap:butt;stroke-linejoin:miter;stroke-miterlimit:4;stroke-dasharray:none;stroke-opacity:1"
         d="m -27.50423,142.42986 c -1.386319,-0.0243 -2.797069,0.31144 -4.089817,1.04629 -1.273189,0.72375 -2.272275,1.74391 -2.959799,2.92442"
         id="path6962" />
    </g>
  </g>
</svg>
